<?xml version="1.0" encoding="utf-8"?>
<!-- Generator: Adobe Illustrator 22.0.1, SVG Export Plug-In . SVG Version: 6.00 Build 0)  -->
<svg version="1.1" id="圖層_1" xmlns="http://www.w3.org/2000/svg" xmlns:xlink="http://www.w3.org/1999/xlink" x="0px" y="0px"
	 viewBox="0 0 150 150" style="enable-background:new 0 0 150 150;" xml:space="preserve">
<style type="text/css">
	.st0{fill:none;stroke:#040000;stroke-width:5.5864;stroke-miterlimit:10;}
	.st1{fill:#231815;}
</style>
<g>
	<path class="st0" d="M63.2,45.4"/>
	<path class="st1" d="M104,61.3c-2,2.7-5.2,4.2-8.6,4.2c-3.5,0-6.6-1.5-8.6-4.2s-2.5-6-1.4-9.1l8.1-15.1c0.8-1.5,2.9-1.5,3.7,0
		l8.1,15.1C106.5,55.3,106,58.6,104,61.3z"/>
	<g>
		<path class="st1" d="M69.5,73c1.6,0,2.9,0.5,4,1.6s1.7,2.4,1.7,4s-0.5,2.9-1.6,4s-2.4,1.7-4,1.7s-2.9-0.5-4-1.6s-1.7-2.4-1.7-4
			c0-1.5,0.5-2.9,1.6-4C66.6,73.6,67.9,73,69.5,73z M69.5,76.2c-0.7,0-1.3,0.2-1.7,0.7c-0.5,0.5-0.7,1.1-0.7,1.8
			c0,0.7,0.2,1.3,0.7,1.7c0.5,0.5,1.1,0.7,1.8,0.7s1.3-0.2,1.7-0.7c0.5-0.5,0.7-1.1,0.7-1.8c0-0.7-0.3-1.3-0.7-1.7
			C70.8,76.4,70.2,76.2,69.5,76.2z M81.9,73.2l-8.5,21.5h-1.9l8.6-21.5H81.9z M84.1,83.7c1.5,0,2.9,0.5,4,1.6s1.7,2.4,1.7,4
			s-0.5,2.9-1.6,4s-2.4,1.7-4,1.7s-2.9-0.5-4-1.6s-1.7-2.4-1.7-4s0.5-2.9,1.6-4C81.2,84.2,82.5,83.7,84.1,83.7z M84.1,86.8
			c-0.7,0-1.3,0.3-1.7,0.7c-0.5,0.5-0.7,1.1-0.7,1.8c0,0.7,0.2,1.3,0.7,1.8s1.1,0.7,1.8,0.7s1.3-0.2,1.7-0.7
			c0.5-0.5,0.7-1.1,0.7-1.8c0-0.7-0.2-1.3-0.7-1.7C85.4,87,84.8,86.8,84.1,86.8z"/>
	</g>
	<path class="st1" d="M76.5,110.5c-7.2,0-14.1-2.8-19.3-8s-8.1-12.1-8.1-19.4c0-5.6,1.6-10.7,4.8-15.3c0.3-0.5,9.9-17.4,15-26.3
		c1.5-2.7,4.3-4.3,7.4-4.3c3.1-0.1,5.9,1.6,7.4,4.2l3.1,5.3L84.7,48l-3.1-5.3c-1.1-1.9-3.2-3.1-5.3-3c-2.2,0-4.2,1.2-5.3,3.1
		C61.1,60.1,56,69,55.9,69.1c-2.9,4.1-4.3,8.8-4.3,13.9c0,6.7,2.6,12.9,7.4,17.7c4.8,4.8,11.1,7.4,17.7,7.3c6.7,0,12.9-2.7,17.6-7.4
		c4.7-4.7,7.2-11,7.2-17.7c0-4-1.1-8.1-3-11.6c-0.1-0.2-0.2-0.4-0.3-0.5l-1.9-3.3l2.1-1.2l1.9,3.3c0.1,0.2,0.2,0.4,0.3,0.7
		c2.1,3.8,3.2,8.3,3.2,12.7c0,7.3-2.8,14.2-7.9,19.4C90.8,107.6,83.9,110.5,76.5,110.5C76.6,110.5,76.5,110.5,76.5,110.5z"/>
</g>
</svg>
